<svg width="570" height="324" viewBox="0 0 570 324" fill="none" xmlns="http://www.w3.org/2000/svg">
<mask id="mask0_162:3292" style="mask-type:alpha" maskUnits="userSpaceOnUse" x="0" y="0" width="570" height="324">
<rect width="570" height="324" rx="8" fill="white"/>
</mask>
<g mask="url(#mask0_162:3292)">
<path opacity="0.1" d="M478.646 323.409C471.646 332.649 461.893 337.269 449.386 337.269C436.879 337.269 427.079 332.649 419.986 323.409C412.986 314.075 409.486 301.709 409.486 286.309C409.486 270.909 412.986 258.589 419.986 249.349C427.079 240.015 436.879 235.349 449.386 235.349C461.893 235.349 471.646 240.015 478.646 249.349C485.739 258.589 489.286 270.909 489.286 286.309C489.286 301.709 485.739 314.075 478.646 323.409ZM431.886 286.309C431.886 305.722 437.719 315.429 449.386 315.429C461.053 315.429 466.886 305.722 466.886 286.309C466.886 266.895 461.053 257.189 449.386 257.189C437.719 257.189 431.886 266.895 431.886 286.309ZM517.755 237.309H537.355V335.309H514.955V260.969L497.595 265.729L492.135 246.549L517.755 237.309Z" fill="#CB8734"/>
</g>
</svg>
