<svg width="570" height="324" viewBox="0 0 570 324" fill="none" xmlns="http://www.w3.org/2000/svg">
<mask id="mask0_162:3283" style="mask-type:alpha" maskUnits="userSpaceOnUse" x="0" y="0" width="570" height="324">
<rect width="570" height="324" rx="8" fill="white"/>
</mask>
<g mask="url(#mask0_162:3283)">
<path opacity="0.1" d="M460.462 323.409C453.462 332.649 443.709 337.269 431.202 337.269C418.696 337.269 408.896 332.649 401.802 323.409C394.802 314.075 391.302 301.709 391.302 286.309C391.302 270.909 394.802 258.589 401.802 249.349C408.896 240.015 418.696 235.349 431.202 235.349C443.709 235.349 453.462 240.015 460.462 249.349C467.556 258.589 471.102 270.909 471.102 286.309C471.102 301.709 467.556 314.075 460.462 323.409ZM413.702 286.309C413.702 305.722 419.536 315.429 431.202 315.429C442.869 315.429 448.702 305.722 448.702 286.309C448.702 266.895 442.869 257.189 431.202 257.189C419.536 257.189 413.702 266.895 413.702 286.309ZM475.632 335.309V319.069L508.532 284.909C515.158 278.095 518.472 272.309 518.472 267.549C518.472 264.469 517.538 261.995 515.672 260.129C513.805 258.169 511.238 257.189 507.972 257.189C501.438 257.189 496.632 260.735 493.552 267.829L474.652 256.769C477.638 249.769 482.118 244.449 488.092 240.809C494.065 237.169 500.598 235.349 507.692 235.349C516.838 235.349 524.632 238.195 531.072 243.889C537.605 249.489 540.872 257.049 540.872 266.569C540.872 276.929 535.785 287.195 525.612 297.369L509.372 313.749H542.272V335.309H475.632Z" fill="#CB8734"/>
</g>
</svg>
