<svg width="570" height="319" viewBox="0 0 570 319" fill="none" xmlns="http://www.w3.org/2000/svg">
<mask id="mask0_162:3274" style="mask-type:alpha" maskUnits="userSpaceOnUse" x="0" y="0" width="570" height="319">
<rect width="570" height="319" rx="8" fill="white"/>
</mask>
<g mask="url(#mask0_162:3274)">
<path opacity="0.1" d="M459.642 315.248C452.642 324.488 442.889 329.108 430.382 329.108C417.875 329.108 408.075 324.488 400.982 315.248C393.982 305.915 390.482 293.548 390.482 278.148C390.482 262.748 393.982 250.428 400.982 241.188C408.075 231.855 417.875 227.188 430.382 227.188C442.889 227.188 452.642 231.855 459.642 241.188C466.735 250.428 470.282 262.748 470.282 278.148C470.282 293.548 466.735 305.915 459.642 315.248ZM412.882 278.148C412.882 297.562 418.715 307.268 430.382 307.268C442.049 307.268 447.882 297.562 447.882 278.148C447.882 258.735 442.049 249.028 430.382 249.028C418.715 249.028 412.882 258.735 412.882 278.148ZM522.167 268.908C528.421 271.055 533.461 274.555 537.287 279.408C541.114 284.168 543.027 289.815 543.027 296.348C543.027 306.615 539.574 314.642 532.667 320.428C525.761 326.215 517.314 329.108 507.327 329.108C499.581 329.108 492.627 327.335 486.467 323.788C480.401 320.242 475.921 315.015 473.027 308.108L492.347 296.908C494.774 303.815 499.767 307.268 507.327 307.268C511.714 307.268 515.027 306.242 517.267 304.188C519.507 302.135 520.627 299.522 520.627 296.348C520.627 293.175 519.507 290.562 517.267 288.508C515.027 286.455 511.714 285.428 507.327 285.428H502.707L494.167 272.688L511.947 250.148H476.107V229.148H539.107V247.348L522.167 268.908Z" fill="#CB8734"/>
</g>
</svg>
