<svg width="570" height="319" viewBox="0 0 570 319" fill="none" xmlns="http://www.w3.org/2000/svg">
<mask id="mask0_162:3265" style="mask-type:alpha" maskUnits="userSpaceOnUse" x="0" y="0" width="570" height="319">
<rect width="570" height="319" rx="8" fill="white"/>
</mask>
<g mask="url(#mask0_162:3265)">
<path opacity="0.1" d="M451.166 314.35C444.166 323.59 434.412 328.21 421.906 328.21C409.399 328.21 399.599 323.59 392.505 314.35C385.505 305.016 382.005 292.65 382.005 277.25C382.005 261.85 385.505 249.53 392.505 240.29C399.599 230.956 409.399 226.29 421.906 226.29C434.412 226.29 444.166 230.956 451.166 240.29C458.259 249.53 461.805 261.85 461.805 277.25C461.805 292.65 458.259 305.016 451.166 314.35ZM404.405 277.25C404.405 296.663 410.239 306.37 421.906 306.37C433.572 306.37 439.406 296.663 439.406 277.25C439.406 257.836 433.572 248.13 421.906 248.13C410.239 248.13 404.405 257.836 404.405 277.25ZM545.789 289.85V310.57H535.989V326.25H513.309V310.57H468.789V289.85L500.009 228.25H524.089L492.869 289.85H513.309V268.85H535.989V289.85H545.789Z" fill="#CB8734"/>
</g>
</svg>
