<svg width="160" height="38" viewBox="0 0 160 38" fill="none" xmlns="http://www.w3.org/2000/svg">
<rect x="0.5" y="0.5" width="159" height="37" fill="white" stroke="#E7D8C7"/>
<path d="M71.9454 11.5H88.0546C88.1999 11.5 88.3421 11.5422 88.4638 11.6215C88.5856 11.7008 88.6817 11.8137 88.7405 11.9466C88.7993 12.0795 88.8182 12.2266 88.7949 12.37C88.7717 12.5134 88.7073 12.647 88.6096 12.7545L82.4451 19.5355C82.3196 19.6735 82.25 19.8534 82.25 20.04V25.3486C82.25 25.4721 82.2195 25.5936 82.1613 25.7025C82.103 25.8114 82.0188 25.9042 81.916 25.9726L78.916 27.9727C78.8031 28.048 78.6718 28.0912 78.5362 28.0977C78.4006 28.1043 78.2658 28.0739 78.1461 28.0099C78.0264 27.9458 77.9264 27.8505 77.8566 27.734C77.7869 27.6176 77.75 27.4844 77.75 27.3486V20.04C77.75 19.8534 77.6805 19.6735 77.555 19.5355L71.3905 12.7545C71.2927 12.647 71.2283 12.5134 71.2051 12.37C71.1819 12.2266 71.2008 12.0795 71.2595 11.9466C71.3183 11.8137 71.4144 11.7008 71.5362 11.6215C71.658 11.5422 71.8001 11.5 71.9454 11.5V11.5Z" stroke="#E7D8C7" stroke-linecap="round" stroke-linejoin="round"/>
</svg>
